<svg width="356" height="354" viewBox="0 0 356 354" fill="none" xmlns="http://www.w3.org/2000/svg">
<g clip-path="url(#clip0_44_128)">
<rect x="0.10498" width="355.79" height="353.269" rx="4.74688" fill="#EBE3BC"/>
<path d="M14.3675 354.235C14.3675 354.235 -53.2461 243.039 -8.39537 157.145C138.649 -124.458 367.516 23.6843 339.704 190.273C326.245 270.89 380.665 273.82 352.936 354.405L14.3675 354.235Z" fill="#CC34DA" fill-opacity="0.23"/>
<path d="M141.398 173.91L140.896 173.759L111.129 188.077L111.572 188.904L141.12 174.831L141.398 173.91Z" fill="#DA3448"/>
<path d="M139.879 171.99L110.288 186.507L110.709 187.292L140.429 172.887L140.631 172.218L139.879 171.99Z" fill="#DA3448"/>
<path d="M141.098 173.089L140.429 172.887L110.709 187.292L111.129 188.077L140.896 173.759L141.098 173.089Z" fill="white"/>
<path d="M139.879 171.99L140.631 172.218L140.429 172.887L141.098 173.089L140.896 173.759L141.398 173.91L141.12 174.831L143.743 172.337C143.3 172.113 143.248 171.92 143.406 171.498L139.879 171.99Z" fill="#EADDA8"/>
<path d="M143.743 172.337L144.836 171.298L143.406 171.498C143.248 171.92 143.3 172.113 143.743 172.337Z" fill="#DA3448"/>
<path d="M142.619 176.402L142.127 176.219L111.517 188.632L111.907 189.485L142.283 177.303L142.619 176.402Z" fill="#DA7C34"/>
<path d="M141.224 174.39L110.776 187.012L111.147 187.822L141.716 175.32L141.961 174.665L141.224 174.39Z" fill="#DA7C34"/>
<path d="M142.372 175.564L141.716 175.32L111.147 187.822L111.517 188.632L142.127 176.219L142.372 175.564Z" fill="white"/>
<path d="M141.224 174.39L141.961 174.665L141.716 175.32L142.372 175.564L142.127 176.219L142.619 176.402L142.283 177.303L145.058 174.98C144.63 174.728 144.591 174.533 144.775 174.121L141.224 174.39Z" fill="#EADDA8"/>
<path d="M145.058 174.98L146.215 174.012L144.775 174.121C144.591 174.533 144.63 174.728 145.058 174.98Z" fill="#DA7C34"/>
<path d="M143.619 178.402L143.127 178.219L112.517 190.632L112.907 191.485L143.283 179.303L143.619 178.402Z" fill="#3450DA"/>
<path d="M142.224 176.39L111.776 189.012L112.147 189.822L142.716 177.32L142.961 176.665L142.224 176.39Z" fill="#3450DA"/>
<path d="M143.372 177.564L142.716 177.32L112.147 189.822L112.517 190.632L143.127 178.219L143.372 177.564Z" fill="white"/>
<path d="M142.224 176.39L142.961 176.665L142.716 177.32L143.372 177.564L143.127 178.219L143.619 178.402L143.283 179.303L146.058 176.98C145.63 176.728 145.591 176.533 145.775 176.121L142.224 176.39Z" fill="#EADDA8"/>
<path d="M146.058 176.98L147.215 176.012L145.775 176.121C145.591 176.533 145.63 176.728 146.058 176.98Z" fill="#3450DA"/>
<path d="M140.619 176.33L140.127 176.147L109.517 188.56L109.907 189.413L140.283 177.231L140.619 176.33Z" fill="black"/>
<path d="M139.224 174.318L108.776 186.94L109.147 187.75L139.716 175.248L139.961 174.593L139.224 174.318Z" fill="black"/>
<path d="M140.372 175.492L139.716 175.248L109.147 187.75L109.517 188.56L140.127 176.147L140.372 175.492Z" fill="white"/>
<path d="M139.224 174.318L139.961 174.593L139.716 175.248L140.372 175.492L140.127 176.147L140.619 176.33L140.283 177.231L143.058 174.908C142.63 174.656 142.591 174.461 142.775 174.049L139.224 174.318Z" fill="#EADDA8"/>
<path d="M143.058 174.908L144.215 173.94L142.775 174.049C142.591 174.461 142.63 174.656 143.058 174.908Z" fill="black"/>
<path d="M90.1188 59.9218C90.0925 59.2032 89.5365 51.4598 77.742 51.0552C77.742 51.0552 83.5417 51.7469 84.544 54.2966C84.544 54.2966 80.5947 51.1461 77.3787 52.1593C74.1626 53.1727 72.2737 58.8072 72.2548 60.6604C72.2359 62.5138 74.0225 68.4878 76.0638 68.9959C76.8368 69.1884 77.7273 69.1366 78.5357 68.9988C77.993 69.8467 77.4605 70.7821 76.9518 71.8268C72.2454 81.4876 77.099 90.9292 81.0832 89.8862C83.6384 89.2172 84.3615 93.5774 84.3615 93.5774L109.187 73.4797C109.187 73.4797 100.069 54.6118 90.1188 59.9218Z" fill="#2C3A64"/>
<path d="M161.996 150.955C161.996 150.955 166.258 148.318 167.65 148.817C169.041 149.316 175.949 152.499 175.51 154.568C175.071 156.636 168.798 155.531 167.624 155.647C166.45 155.763 163.033 155.726 163.033 155.726L161.996 150.955Z" fill="#F9DDBF"/>
<path d="M98.7624 344.534L93.4894 346.498C93.4894 346.498 70.5855 314.731 67.7657 286.783C67.2619 281.793 67.43 276.958 68.5192 272.494C68.5192 272.494 68.2953 271.215 67.9038 268.955C67.7228 267.9 67.4989 266.63 67.245 265.175C66.5002 260.909 65.4757 255.071 64.3044 248.424C61.6095 233.127 58.118 213.574 55.406 199.199L56.8267 198.743L72.2001 193.783L75.3773 183.692L86.8245 180.678C86.8245 180.678 89.3816 185.681 91.6678 209.312C92.0898 212.411 92.4729 215.829 92.7612 219.536C93.6526 230.85 93.717 244.885 91.6722 260.93C91.1469 265.037 90.4839 269.278 89.6617 273.634C89.059 276.829 88.9685 281.181 89.2226 286.18C90.376 309.027 98.7624 344.534 98.7624 344.534Z" fill="#2B478B"/>
<path d="M92.761 219.537L67.9033 268.955C67.7223 267.9 67.4984 266.63 67.2445 265.175C66.4997 260.909 65.4752 255.071 64.3039 248.424C61.609 233.127 58.1175 213.574 55.4055 199.199L56.8262 198.743L72.1996 193.783L75.3768 183.692L86.824 180.678C86.824 180.678 89.3811 185.681 91.6673 209.312C92.0895 212.412 92.4726 215.83 92.761 219.537Z" fill="#233862"/>
<path d="M81.8256 187.02L81.2502 182.086C71.6095 184.646 45.8507 174.93 45.8507 174.93C45.8507 174.93 36.5111 183.14 37.7373 202.819C38.3358 212.425 39.429 253.24 40.5709 265.319C40.9838 269.696 41.3451 272.811 41.4927 274.055C41.4958 274.062 41.4958 274.065 41.4958 274.068C41.541 274.447 41.4082 274.806 41.2155 275.137C39.5344 277.99 38.1426 280.961 37.0007 284C25.7933 313.866 38.7269 350.645 38.7269 350.645L42.083 349.293C42.083 349.293 49.4431 308.361 55.4232 290.279C56.4386 287.212 57.4117 284.802 58.3037 283.362C60.9035 279.165 63.3167 272.308 65.5071 264.153C69.6465 248.734 72.9786 228.675 75.1959 213.193C75.5021 213.207 81.8256 187.02 81.8256 187.02Z" fill="#2B478B"/>
<path d="M161.996 150.955C163.838 152.831 163.609 154.311 163.033 155.726C163.033 155.726 162.734 155.839 162.198 155.999C160.513 156.508 134.553 160.906 127.65 159.077C121.729 157.508 114.712 154.76 106.028 147.591C105.794 147.424 105.597 147.243 105.401 147.061C100.841 143.239 97.1159 139.144 95.5126 135.356C94.5112 133.047 94.0101 130.932 93.8318 128.994C93.5912 126.44 93.9445 124.216 94.5046 122.426C94.5693 122.145 94.6338 121.865 94.7872 121.593C95.7743 118.788 97.1897 117.229 97.1897 117.229C97.9441 116.517 99.0842 116.598 100.501 117.299L100.515 117.336C101.661 117.884 103.051 118.852 104.53 120.169C104.582 120.192 104.634 120.216 104.648 120.253C104.961 120.518 105.289 120.821 105.668 121.147C105.771 121.193 105.851 121.291 105.916 121.352C106.652 122.055 107.401 122.795 108.165 123.573C116.539 131.84 127.16 145.145 132.937 148.122C135.425 149.399 144.89 150.172 152.346 150.594C157.699 150.874 161.996 150.955 161.996 150.955Z" fill="#F9DDBF"/>
<path d="M100.243 127.166C97.2162 128.569 93.5613 129.526 89.1399 129.767C72.5653 130.675 68.8027 116.145 68.1182 106.501C70.5074 105.636 72.6 105.718 73.8054 105.783C74.9807 105.847 76.2077 105.968 77.2191 106.093C79.247 105.033 82.8891 99.8888 84.9943 91.283L85.7091 91.6144L97.6688 97.237C97.6688 97.237 96.3989 101.129 95.4602 104.853C94.7285 107.767 94.2034 110.583 94.6422 111.37C95.5851 111.754 96.149 111.995 96.149 111.995C96.149 111.995 96.149 111.999 96.153 112.008C96.2735 112.314 98.8737 118.939 100.243 127.166Z" fill="#F9DDBF"/>
<path d="M97.6696 97.2395C97.6696 97.2395 96.3978 101.128 95.4611 104.855C88.4706 102.905 86.3477 95.5565 85.7087 91.6172L97.6696 97.2395Z" fill="#FFC68A"/>
<path d="M99.1411 101.356C99.1411 101.356 82.4161 97.4856 84.9869 87.1074C87.5578 76.7291 87.1304 69.24 97.9176 71.2724C108.705 73.3049 109.79 77.7769 109.775 81.4497C109.759 85.1226 103.558 102.096 99.1411 101.356Z" fill="#F9DDBF"/>
<path d="M110.715 75.558C108.917 71.7964 106.801 71.9972 105.478 72.6639C97.6191 65.3928 89.9108 71.3331 89.9108 71.3331C86.944 78.5002 80.5139 81.4287 80.5139 81.4287C80.5139 81.4287 83.0832 84.0596 90.53 84.0018C92.8047 83.984 95.0918 82.9397 97.1729 81.5008C93.1586 85.5435 88.4521 88.0047 88.4521 88.0047C97.774 86.2209 104.025 75.4289 104.665 74.2825C105.455 75.4487 106.966 77.9312 107.093 80.0274C107.266 82.8761 106.286 88.4082 107.917 88.6176C107.917 88.6176 113.412 81.1993 110.715 75.558Z" fill="#2C3A64"/>
<path d="M110.495 125.937C110.084 124.997 106.351 118.869 104.994 117.66C102.532 115.465 99.9719 114.114 96.1496 111.995C96.1496 111.995 96.1496 112 96.1536 112.008C96.2656 112.422 99.2836 123.352 98.1815 125.686C97.0623 128.058 75.8769 120.399 74.7187 118.651C73.7931 117.247 73.7671 109.83 73.7932 106.941C73.7974 106.222 73.8063 105.783 73.8063 105.783C73.8063 105.783 65.8977 104.711 61.4504 106.511C61.4504 106.511 63.2068 110.325 63.8527 114.531C63.9129 114.932 63.9645 115.332 64.0034 115.732C64.0894 116.58 64.1155 117.428 64.0679 118.255C64.0034 119.348 63.4393 120.317 62.5396 121.264C61.7216 122.134 60.611 122.991 59.3538 123.908C58.5313 124.502 57.6489 125.126 56.7362 125.802L56.736 125.802C56.6586 130.755 57.0079 138.9 56.0904 147.59C55.858 149.794 55.1261 151.904 53.9722 153.772C53.516 154.517 52.9906 155.223 52.4052 155.882C47.734 161.121 39.4512 171.565 41.2721 178.066C41.4057 184.196 93.1143 192.252 92.0082 185.518C92.0082 185.518 99.7787 148.068 103.976 139.027C104.127 138.696 104.265 138.373 104.39 138.041C105.735 134.473 105.508 130.804 105.053 127.52C107.422 125.835 110.495 125.937 110.495 125.937Z" fill="#C4494B"/>
<path d="M116.635 178.482L115.238 183.589C115.238 183.589 113.482 183.271 110.689 182.752C109.851 182.592 109.373 182.472 109.373 182.472C107.138 182.033 104.464 181.435 101.551 180.796H101.511C96.5227 179.599 90.9361 178.163 86.2269 176.566C82.9148 175.409 80.0414 174.172 78.0862 172.935C77.8865 172.815 77.7271 172.695 77.5275 172.536C72.8585 169.144 67.3115 159.168 63.002 148.473C62.4033 146.996 61.8446 145.52 61.2858 144.083C59.2904 138.735 57.6945 133.468 56.7369 128.919C56.1382 126.205 55.7393 123.731 55.6593 121.696C55.6195 120.978 55.5792 120.3 55.6195 119.661C55.6993 108.088 61.4457 106.492 61.4457 106.492C61.5653 106.452 61.6851 106.412 61.8448 106.372C62.8424 106.213 63.88 106.891 64.9577 108.208C66.3143 109.844 67.7511 112.518 69.2276 115.75C71.502 120.898 73.8965 127.562 76.131 134.187C77.3683 137.818 78.5653 141.449 79.7624 144.801C80.4409 146.837 81.1193 148.752 81.7576 150.508C82.9946 153.86 84.1121 156.573 85.1097 158.289C85.748 159.407 87.5838 160.963 90.0181 162.719C94.248 165.792 100.434 169.503 105.821 172.536C108.056 173.813 110.171 174.97 111.926 175.928C114.76 177.484 116.635 178.482 116.635 178.482Z" fill="#F9DDBF"/>
<path d="M69.2125 115.766C61.5298 113.649 55.604 119.647 55.604 119.647C55.7005 108.093 61.4518 106.512 61.4518 106.512C63.7656 105.553 66.4467 109.56 69.2125 115.766Z" fill="#C4494B"/>
<path d="M58.2397 353.387H31.6812C31.6812 353.387 31.0446 349.339 32.4318 346.268C33.7611 343.322 35.843 341.982 35.3446 338.417C37.0321 340.155 39.7825 342.1 43.6222 341.584C44.0927 342.347 46.6591 346.428 48.2307 347.557C49.9663 348.805 57.7054 348.36 58.2397 353.387Z" fill="#233862"/>
<path d="M115.265 353.387H88.7058C88.7058 353.387 87.7129 349.151 89.4566 346.269C91.0001 343.718 90.4085 342.265 89.2654 340.155C90.4685 340.647 92.025 341.095 93.7386 340.998C95.0617 340.921 96.4612 340.321 97.6883 339.608C98.8313 340.911 103.726 346.459 105.255 347.557C106.991 348.805 114.73 348.36 115.265 353.387Z" fill="#233862"/>
<path d="M133.156 183.431C130.602 184.508 127.011 188.259 121.264 185.985C117.154 184.388 112.804 183.271 110.689 182.752C109.851 182.592 109.373 182.473 109.373 182.473L111.647 175.848C111.647 175.848 111.727 175.888 111.927 175.928C113.403 176.247 120.905 177.844 124.417 177.046C128.368 176.128 134.992 180.877 134.992 180.877C134.992 180.877 135.71 182.393 133.156 183.431Z" fill="#F9DDBF"/>
<path d="M333.724 353.322C332.562 353.612 331.386 352.903 331.1 351.745L305.225 247.496L300.219 227.326L290.389 187.72L275.42 127.421L289.494 126.501L297.767 167.379L309.659 226.14L315.65 255.749L334.991 351.316C335.177 352.217 334.615 353.103 333.724 353.322Z" fill="#F9DDBF"/>
<path d="M297.767 167.379C297.643 167.756 297.571 167.956 297.571 167.956C297.571 167.956 290.66 178 290.389 187.721L275.42 127.421L289.494 126.502L297.767 167.379Z" fill="#EAC8A9"/>
<path d="M285.469 127.421L260.67 227.327L255.665 247.497L229.789 351.746C229.503 352.903 228.327 353.613 227.165 353.322C226.274 353.103 225.712 352.217 225.898 351.317L245.239 255.75L251.23 226.141L271.395 126.502L285.469 127.421Z" fill="#F9DDBF"/>
<path d="M260.67 227.327L255.664 247.496C249.754 247.877 245.239 255.75 245.239 255.75L251.23 226.141L260.622 225.203C260.622 225.203 260.656 226.012 260.67 227.327Z" fill="#EAC8A9"/>
<path d="M202.546 127.421L177.747 227.327L172.742 247.497L146.867 351.746C146.581 352.903 145.405 353.613 144.242 353.322C143.352 353.103 142.79 352.217 142.976 351.317L162.317 255.75L168.308 226.141L188.473 126.502L202.546 127.421Z" fill="#F9DDBF"/>
<path d="M177.748 227.327L172.743 247.496C166.832 247.877 162.317 255.75 162.317 255.75L168.308 226.141L177.701 225.203C177.701 225.203 177.734 226.012 177.748 227.327Z" fill="#EAC8A9"/>
<path d="M265.884 242.342H146.5L188.786 86.1589H305.223L265.884 242.342Z" fill="#CA8D5E"/>
<path d="M262.324 242.342H142.94L185.227 86.1589H301.663L262.324 242.342Z" fill="white"/>
<path d="M378.074 355.178H-16.0697C-16.6368 355.178 -17.1008 354.715 -17.1008 354.147C-17.1008 353.58 -16.6368 353.116 -16.0697 353.116H378.074C378.641 353.116 379.105 353.58 379.105 354.147C379.105 354.715 378.641 355.178 378.074 355.178Z" fill="#2E3552"/>
<path d="M186.843 147.472C186.461 147.395 186.157 147.187 185.932 146.848C185.732 146.494 185.676 146.095 185.765 145.652L188.482 132.187C188.905 130.094 189.791 128.608 191.141 127.728C192.512 126.853 194.274 126.632 196.428 127.067C202.063 128.204 204.144 132.425 202.67 139.731C201.951 143.294 200.712 145.798 198.954 147.245C197.2 148.671 194.864 149.09 191.946 148.501L186.843 147.472ZM190.521 144.506L192.664 144.939C194.154 145.24 195.346 144.883 196.242 143.87C197.162 142.841 197.882 141.038 198.401 138.462C198.897 136.006 198.936 134.202 198.519 133.05C198.127 131.882 197.196 131.149 195.727 130.853C194.157 130.536 193.256 130.951 193.025 132.098L190.521 144.506ZM209.929 152.381C207.775 151.947 206.198 150.99 205.198 149.51C204.198 148.031 203.974 145.922 204.527 143.185C205.083 140.428 206.107 138.571 207.598 137.615C209.094 136.639 210.918 136.369 213.072 136.803C215.226 137.238 216.802 138.195 217.803 139.674C218.807 141.134 219.031 143.242 218.474 145.999C217.922 148.737 216.898 150.593 215.402 151.569C213.907 152.545 212.082 152.816 209.929 152.381ZM210.66 148.759C211.223 148.872 211.719 148.857 212.146 148.713C212.577 148.548 212.954 148.185 213.277 147.621C213.62 147.062 213.904 146.229 214.127 145.122C214.35 144.015 214.412 143.138 214.313 142.489C214.233 141.845 214.025 141.373 213.687 141.075C213.353 140.756 212.905 140.54 212.341 140.426C211.798 140.316 211.3 140.342 210.849 140.502C210.422 140.646 210.037 140.998 209.694 141.557C209.37 142.12 209.097 142.955 208.874 144.062C208.651 145.169 208.579 146.045 208.658 146.689C208.758 147.338 208.974 147.821 209.308 148.14C209.666 148.443 210.116 148.649 210.66 148.759ZM225.997 155.623C223.843 155.189 222.266 154.232 221.266 152.752C220.266 151.273 220.042 149.165 220.594 146.427C221.151 143.67 222.175 141.813 223.666 140.858C225.162 139.882 226.986 139.611 229.14 140.045C231.294 140.48 232.87 141.437 233.871 142.916C234.875 144.376 235.099 146.484 234.542 149.242C233.99 151.979 232.966 153.835 231.47 154.811C229.975 155.787 228.15 156.058 225.997 155.623ZM226.728 152.001C227.291 152.114 227.787 152.099 228.214 151.955C228.645 151.791 229.022 151.427 229.345 150.864C229.688 150.304 229.972 149.471 230.195 148.364C230.418 147.257 230.48 146.38 230.381 145.731C230.301 145.087 230.093 144.615 229.755 144.317C229.421 143.998 228.973 143.782 228.409 143.668C227.866 143.559 227.368 143.584 226.917 143.744C226.49 143.888 226.105 144.24 225.761 144.799C225.438 145.362 225.165 146.198 224.942 147.304C224.718 148.411 224.646 149.287 224.726 149.932C224.825 150.58 225.042 151.064 225.376 151.382C225.734 151.685 226.184 151.891 226.728 152.001ZM242.246 158.902C240.032 158.455 238.423 157.398 237.419 155.729C236.435 154.064 236.218 151.873 236.766 149.156C237.131 147.345 237.683 145.959 238.422 144.997C239.161 144.036 240.037 143.428 241.053 143.172C242.092 142.9 243.205 142.883 244.393 143.123C245.459 143.338 246.299 143.644 246.91 144.039C247.521 144.435 247.955 144.983 248.212 145.685C248.156 145.233 248.125 144.819 248.117 144.44C248.134 144.046 248.173 143.593 248.234 143.081C248.316 142.574 248.436 141.928 248.594 141.143L249.118 138.547C249.435 136.977 250.267 136.328 251.616 136.6C253.085 136.896 253.661 137.83 253.344 139.4L250.768 152.17C250.219 154.887 249.206 156.798 247.726 157.903C246.246 159.008 244.419 159.341 242.246 158.902ZM242.765 155.237C243.611 155.407 244.326 155.237 244.911 154.727C245.515 154.221 245.984 153.142 246.317 151.492C246.541 150.385 246.599 149.527 246.491 148.919C246.407 148.295 246.187 147.831 245.829 147.529C245.471 147.226 245.01 147.018 244.447 146.904C243.883 146.791 243.378 146.804 242.931 146.944C242.483 147.084 242.09 147.424 241.751 147.963C241.436 148.486 241.167 149.301 240.944 150.408C240.611 152.058 240.615 153.232 240.956 153.929C241.317 154.63 241.92 155.066 242.765 155.237ZM267.558 164.01C265.545 163.603 264.032 162.953 263.019 162.057C262.026 161.165 261.406 160.087 261.158 158.822C260.931 157.562 260.97 156.176 261.274 154.667C261.835 151.889 262.85 150.021 264.322 149.061C265.797 148.081 267.572 147.8 269.645 148.218C270.892 148.47 271.957 148.905 272.838 149.522C273.718 150.14 274.351 150.896 274.736 151.791C275.125 152.665 275.208 153.656 274.985 154.763C274.335 157.983 271.716 159.13 267.127 158.204L265.376 157.851C265.411 158.507 265.573 159.053 265.862 159.489C266.176 159.908 266.805 160.213 267.751 160.404C268.275 160.51 268.703 160.565 269.038 160.569C269.372 160.574 269.686 160.574 269.98 160.571C270.294 160.571 270.642 160.61 271.025 160.687C271.568 160.797 271.98 160.985 272.262 161.251C272.547 161.497 272.631 161.912 272.513 162.496C272.347 163.321 271.861 163.862 271.055 164.118C270.273 164.358 269.108 164.322 267.558 164.01ZM265.615 155.574C265.821 155.385 266.031 155.281 266.244 155.261C266.462 155.221 266.782 155.244 267.204 155.329C268.392 155.569 269.229 155.623 269.717 155.491C270.228 155.343 270.545 154.967 270.667 154.363C270.821 153.598 270.728 152.972 270.386 152.484C270.049 151.976 269.558 151.657 268.914 151.527C268.169 151.377 267.523 151.571 266.974 152.11C266.426 152.648 265.973 153.803 265.615 155.574Z" fill="#DA3448"/>
<path d="M257.174 159.809C256.902 161.158 256.061 161.69 254.652 161.405C253.968 161.267 253.459 160.987 253.126 160.563C252.792 160.14 252.692 159.596 252.826 158.932L256.634 140.063C256.78 139.339 257.057 138.798 257.464 138.44C257.891 138.086 258.497 137.989 259.282 138.147C260.067 138.305 260.578 138.628 260.815 139.116C261.072 139.608 261.127 140.216 260.981 140.94L257.174 159.809Z" fill="white"/>
<g filter="url(#filter0_d_44_128)">
<path d="M204.386 135.763L200.757 151.91L217.419 155.521C217.419 155.521 219.976 144.537 221.615 137.499C220.199 136.643 217.989 135.307 217.989 135.307L218.27 134.691L208.851 132.511L204.386 135.763Z" fill="#EBE3BC"/>
<path d="M217.989 135.307C217.989 135.307 220.199 136.643 221.615 137.499C221.79 136.746 222.064 135.569 222.064 135.569L218.27 134.691L217.989 135.307Z" fill="#EBE3BC"/>
<path d="M222.772 138.199L223.641 136.447L218.821 133.485L218.27 134.691L222.064 135.569C222.064 135.569 221.79 136.746 221.615 137.499C222.066 137.773 222.772 138.199 222.772 138.199Z" fill="#EBE3BC"/>
<path d="M206.346 131.932L205.029 132.9L204.386 135.763L208.851 132.511L206.346 131.932Z" fill="#EBE3BC"/>
<path d="M208.851 132.511L207.971 130.736L206.346 131.932L208.851 132.511Z" fill="#EBE3BC"/>
<path d="M203.062 134.347L203.951 136.08L204.386 135.763L205.029 132.9L203.062 134.347Z" fill="#EBE3BC"/>
<path d="M205.029 132.9L206.346 131.932L205.301 131.69L205.029 132.9Z" fill="#EBE3BC"/>
</g>
<line x1="205.609" y1="135.354" x2="219.544" y2="138.166" stroke="#E45062" stroke-width="0.0612733"/>
<line x1="205.221" y1="137.276" x2="219.156" y2="140.088" stroke="#E45062" stroke-width="0.0612733"/>
<line x1="204.833" y1="139.198" x2="218.768" y2="142.01" stroke="#E45062" stroke-width="0.0612733"/>
<line x1="204.446" y1="141.12" x2="218.38" y2="143.932" stroke="#E45062" stroke-width="0.0612733"/>
<line x1="204.058" y1="143.042" x2="217.992" y2="145.854" stroke="#E45062" stroke-width="0.0612733"/>
<line x1="203.67" y1="144.965" x2="217.604" y2="147.776" stroke="#E45062" stroke-width="0.0612733"/>
<line x1="203.282" y1="146.886" x2="217.217" y2="149.698" stroke="#E45062" stroke-width="0.0612733"/>
<line x1="202.894" y1="148.808" x2="216.829" y2="151.62" stroke="#E45062" stroke-width="0.0612733"/>
<line x1="202.507" y1="150.73" x2="216.441" y2="153.542" stroke="#E45062" stroke-width="0.0612733"/>
<path d="M209.065 152.249C206.912 151.815 205.335 150.858 204.335 149.378C203.335 147.899 203.111 145.791 203.663 143.053C204.219 140.296 205.243 138.439 206.735 137.484C208.23 136.508 210.055 136.237 212.208 136.671C214.362 137.106 215.939 138.063 216.939 139.542C217.943 141.002 218.167 143.11 217.611 145.868C217.058 148.605 216.034 150.461 214.539 151.437C213.043 152.413 211.219 152.684 209.065 152.249ZM209.796 148.627C210.36 148.74 210.855 148.725 211.282 148.581C211.713 148.417 212.09 148.053 212.413 147.49C212.757 146.93 213.04 146.097 213.263 144.99C213.487 143.883 213.549 143.006 213.449 142.357C213.37 141.713 213.161 141.241 212.823 140.943C212.49 140.624 212.041 140.408 211.477 140.294C210.934 140.185 210.437 140.21 209.985 140.37C209.558 140.514 209.173 140.866 208.83 141.425C208.507 141.988 208.234 142.824 208.01 143.93C207.787 145.037 207.715 145.913 207.794 146.558C207.894 147.206 208.111 147.69 208.444 148.008C208.802 148.311 209.253 148.517 209.796 148.627Z" fill="#DA3448"/>
<ellipse cx="271.299" cy="163.267" rx="1.89947" ry="1.96075" transform="rotate(11.4077 271.299 163.267)" fill="white"/>
<path d="M203.605 136.5L209.181 132.686L208.105 130.5L203.009 134.34L203.605 136.5Z" fill="#E88B39"/>
<path d="M223.023 139L217.447 135.186L218.523 133L223.606 136.5L223.023 139Z" fill="#E88B39"/>
<path d="M256.708 143.289C254.441 150.866 253.864 152.797 253.913 160.637C254.48 160.533 255.322 160.947 256.131 161.337C256.083 161.508 260.466 154.325 261.618 144.229C262.769 134.132 259.01 135.591 256.727 143.223L256.708 143.289Z" fill="#DA3448" stroke="#DA3448" stroke-width="0.789704"/>
<path d="M251.401 172.166C256.894 172.014 262.269 162.446 255.026 161.114C251.421 160.758 248.714 162.819 249.91 167.218C250.416 168.684 252.454 168.966 251.401 172.166Z" fill="#DA3448" stroke="#DA3448" stroke-width="0.789704"/>
<path d="M192.493 187.726C192.111 187.649 191.807 187.441 191.582 187.102C191.381 186.748 191.326 186.349 191.415 185.906L194.132 172.441C194.554 170.348 195.441 168.862 196.791 167.982C198.162 167.107 199.924 166.886 202.077 167.321C207.713 168.458 209.793 172.68 208.319 179.986C207.6 183.548 206.362 186.052 204.604 187.499C202.85 188.926 200.514 189.344 197.595 188.756L192.493 187.726ZM196.171 184.761L198.314 185.193C199.803 185.494 200.996 185.137 201.892 184.124C202.811 183.095 203.531 181.292 204.051 178.716C204.547 176.26 204.586 174.457 204.169 173.304C203.776 172.136 202.846 171.403 201.376 171.107C199.806 170.79 198.906 171.205 198.674 172.353L196.171 184.761ZM216.454 192.812C214.441 192.406 212.928 191.755 211.915 190.859C210.922 189.968 210.302 188.89 210.054 187.625C209.827 186.364 209.866 184.979 210.17 183.469C210.731 180.692 211.746 178.823 213.218 177.863C214.693 176.883 216.468 176.603 218.541 177.021C219.788 177.273 220.853 177.707 221.734 178.325C222.614 178.943 223.247 179.699 223.632 180.593C224.021 181.468 224.104 182.458 223.881 183.565C223.231 186.786 220.612 187.933 216.023 187.007L214.272 186.654C214.307 187.31 214.469 187.856 214.758 188.291C215.072 188.711 215.701 189.016 216.647 189.207C217.171 189.312 217.599 189.367 217.934 189.372C218.268 189.376 218.582 189.377 218.876 189.373C219.19 189.374 219.538 189.413 219.921 189.49C220.464 189.6 220.876 189.788 221.158 190.054C221.443 190.3 221.527 190.715 221.409 191.299C221.243 192.124 220.757 192.664 219.951 192.921C219.169 193.161 218.004 193.125 216.454 192.812ZM214.511 184.377C214.717 184.188 214.927 184.084 215.14 184.064C215.358 184.024 215.678 184.047 216.1 184.132C217.288 184.372 218.125 184.425 218.613 184.293C219.124 184.145 219.441 183.769 219.563 183.165C219.717 182.401 219.624 181.774 219.282 181.286C218.945 180.779 218.454 180.46 217.81 180.33C217.065 180.179 216.419 180.374 215.87 180.912C215.322 181.451 214.869 182.606 214.511 184.377ZM229.672 195.479C225.888 194.716 224.165 193.499 224.502 191.828C224.608 191.305 224.832 190.921 225.175 190.676C225.517 190.431 225.92 190.355 226.383 190.448C226.584 190.489 226.769 190.558 226.938 190.655C227.131 190.735 227.491 190.923 228.018 191.218C228.244 191.347 228.55 191.493 228.936 191.655C229.322 191.816 229.706 191.936 230.089 192.013C230.813 192.159 231.345 192.172 231.683 192.052C232.022 191.932 232.234 191.66 232.319 191.238C232.388 190.895 232.36 190.618 232.236 190.404C232.115 190.17 231.812 189.91 231.325 189.623C230.838 189.336 230.074 188.92 229.032 188.375C228.083 187.89 227.369 187.223 226.891 186.372C226.438 185.506 226.321 184.529 226.54 183.442C226.848 181.912 227.638 180.857 228.907 180.275C230.176 179.693 231.777 179.597 233.709 179.987C235.158 180.28 236.255 180.71 236.999 181.279C237.743 181.849 238.038 182.515 237.883 183.28C237.786 183.763 237.564 184.137 237.217 184.403C236.87 184.668 236.455 184.752 235.972 184.654C235.771 184.614 235.536 184.535 235.266 184.417C235.017 184.304 234.711 184.159 234.349 183.981C234.087 183.823 233.802 183.682 233.492 183.557C233.202 183.435 232.886 183.34 232.544 183.271C231.578 183.076 231.026 183.321 230.888 184.005C230.807 184.408 230.929 184.788 231.254 185.147C231.584 185.486 232.26 185.926 233.281 186.468C234.681 187.211 235.659 188.026 236.213 188.913C236.771 189.779 236.928 190.817 236.685 192.024C236.4 193.433 235.627 194.461 234.366 195.107C233.129 195.737 231.564 195.861 229.672 195.479ZM240.75 197.715C239.965 197.556 239.444 197.231 239.187 196.739C238.951 196.252 238.905 195.646 239.052 194.921L242.792 176.384C242.938 175.66 243.215 175.119 243.622 174.761C244.049 174.407 244.656 174.31 245.441 174.468C246.226 174.627 246.736 174.95 246.973 175.437C247.23 175.929 247.285 176.537 247.139 177.262L244.873 188.492C246.07 188.063 247.162 187.53 248.15 186.891C249.141 186.233 249.863 185.561 250.315 184.878C250.735 184.25 251.231 183.868 251.803 183.732C252.375 183.597 252.943 183.742 253.506 184.17C254.286 184.768 254.558 185.493 254.323 186.346C254.157 187.067 253.661 187.815 252.834 188.59C252.031 189.35 251.102 189.959 250.046 190.416C251.132 191.054 251.92 191.977 252.409 193.186C252.923 194.379 252.978 195.972 252.576 197.964C252.3 199.333 251.447 199.873 250.018 199.585C248.549 199.288 247.953 198.456 248.229 197.087C248.525 195.618 248.511 194.494 248.186 193.717C247.861 192.939 247.317 192.473 246.552 192.319C245.847 192.176 245.221 192.322 244.673 192.756C244.144 193.194 243.75 194.057 243.49 195.345C243.255 196.513 242.929 197.243 242.514 197.536C242.103 197.809 241.515 197.869 240.75 197.715Z" fill="#DA3448"/>
<path d="M250.693 172.549C246.295 175.095 247.587 176.173 246.971 177.986L242.646 177.113C243.281 174.301 243.43 174.026 250.693 172.549Z" fill="#DA3448"/>
<path d="M176.098 151.419C178.153 150.607 178.856 145.531 183.704 147.001C180.851 143.717 175.327 142.591 172.521 147.302C171.551 149.363 173.536 152.021 176.098 151.419Z" fill="#DA3448" stroke="white" stroke-width="0.122547"/>
<path d="M256.956 204.641C255.968 203.675 256.793 200.577 253.641 200.249C256.083 199.047 259.542 199.738 260.017 203.135C260.076 204.559 258.287 205.61 256.956 204.641Z" fill="#DA3448"/>
<rect x="270.105" y="162.721" width="5" height="2.61769" transform="rotate(-20.1349 270.105 162.721)" fill="#EBE3BC"/>
<rect x="271.006" y="165.179" width="5" height="6" transform="rotate(-20.1349 271.006 165.179)" fill="#DA3448"/>
</g>
<defs>
<filter id="filter0_d_44_128" x="200.267" y="130.736" width="23.8649" height="25.7648" filterUnits="userSpaceOnUse" color-interpolation-filters="sRGB">
<feFlood flood-opacity="0" result="BackgroundImageFix"/>
<feColorMatrix in="SourceAlpha" type="matrix" values="0 0 0 0 0 0 0 0 0 0 0 0 0 0 0 0 0 0 127 0" result="hardAlpha"/>
<feOffset dy="0.490187"/>
<feGaussianBlur stdDeviation="0.245093"/>
<feComposite in2="hardAlpha" operator="out"/>
<feColorMatrix type="matrix" values="0 0 0 0 0 0 0 0 0 0 0 0 0 0 0 0 0 0 0.25 0"/>
<feBlend mode="normal" in2="BackgroundImageFix" result="effect1_dropShadow_44_128"/>
<feBlend mode="normal" in="SourceGraphic" in2="effect1_dropShadow_44_128" result="shape"/>
</filter>
<clipPath id="clip0_44_128">
<rect x="0.10498" width="355.79" height="353.269" rx="4.74688" fill="white"/>
</clipPath>
</defs>
</svg>
