<svg width="26" height="26" viewBox="0 0 26 26" fill="none" xmlns="http://www.w3.org/2000/svg">
<path d="M5.72762 7.99829C4.20264 10.2734 4.39249 13.2337 5.55741 15.6514C5.58507 15.7094 5.6141 15.7664 5.64272 15.8233L5.6972 15.9323L5.73122 15.995L5.79192 16.1078C5.82814 16.174 5.8652 16.2399 5.90309 16.3057L5.96655 16.4143C6.00859 16.4847 6.05159 16.5543 6.09556 16.6238L6.15059 16.7119C6.21129 16.806 6.27337 16.8998 6.33753 16.992L6.34292 16.9991L6.37445 17.0434C6.4299 17.1227 6.487 17.2011 6.5448 17.2786L6.60896 17.3633C6.66053 17.4306 6.71293 17.4975 6.76631 17.5641L6.82645 17.6387C6.89808 17.7263 6.97122 17.8134 7.04575 17.8988L7.05031 17.9035L7.05875 17.9133C7.13162 17.9958 7.20614 18.0765 7.28164 18.1572L7.35313 18.2319C7.41161 18.2931 7.47107 18.3532 7.53108 18.4131L7.60395 18.4848C7.68414 18.5634 7.76517 18.6403 7.84786 18.7155L7.85173 18.7187L7.89418 18.7563C7.96704 18.8217 8.04116 18.8867 8.11582 18.9505L8.20763 19.0264C8.26861 19.0772 8.33028 19.1271 8.39236 19.1762L8.49109 19.2542C8.55967 19.3066 8.62867 19.3581 8.69835 19.4085L8.77385 19.464L8.79459 19.4794C8.86068 19.5266 8.9283 19.5721 8.99591 19.6176L9.08302 19.6779C9.18672 19.7459 9.29181 19.8132 9.39814 19.8782L9.48525 19.9292C9.56337 19.976 9.64205 20.0219 9.72169 20.0668C9.76483 20.091 9.80908 20.1138 9.8525 20.1369C9.90877 20.1675 9.96463 20.1985 10.0219 20.2282L10.061 20.2478L10.1303 20.2826C10.2189 20.3265 10.3082 20.3697 10.3985 20.4113L10.4552 20.4377C10.5586 20.4847 10.6629 20.5297 10.7681 20.5728L10.8443 20.6039C10.9416 20.6428 11.0404 20.6813 11.1395 20.7175L11.1766 20.7308C11.2854 20.7703 11.3952 20.8069 11.5058 20.8426L11.5853 20.8673C11.6978 20.9025 11.8092 20.9445 11.9252 20.9668C19.3004 22.3629 21.4427 16.3662 21.4427 16.3662C19.6434 18.7995 16.4496 19.4413 13.4236 18.7267C13.309 18.6999 13.1978 18.6627 13.0859 18.6284L13.0017 18.6018C12.8925 18.5671 12.7842 18.5305 12.6765 18.492L12.6319 18.4752C12.5353 18.4401 12.4401 18.4029 12.3451 18.3649L12.2646 18.332C12.1606 18.2894 12.0572 18.2449 11.955 18.1984L11.8932 18.1699C11.8054 18.1286 11.7186 18.087 11.632 18.0438L11.5565 18.0062C11.4886 17.9719 11.4214 17.9354 11.3545 17.8995C11.3097 17.875 11.2641 17.8519 11.2197 17.8263C11.1379 17.7808 11.0577 17.7336 10.9776 17.6854L10.8959 17.638C10.7896 17.5731 10.6846 17.5058 10.5806 17.4375L10.4956 17.3786C10.4202 17.3283 10.3452 17.2769 10.2712 17.2238L10.199 17.1711C10.1277 17.1187 10.057 17.0657 9.98689 17.0119L9.89301 16.9381C9.82871 16.8872 9.76483 16.8358 9.70164 16.7828L9.61633 16.7118C9.53586 16.643 9.45649 16.5742 9.37795 16.5032L9.35182 16.4804C9.26692 16.4031 9.18368 16.3237 9.10127 16.244L9.03062 16.1736C8.96964 16.1133 8.90963 16.0526 8.85059 15.9903L8.78007 15.9172C8.70499 15.8374 8.63129 15.7566 8.55912 15.6746L8.54819 15.6626C8.47187 15.5759 8.3972 15.4873 8.32406 15.3979L8.26543 15.3256C8.21095 15.2574 8.15689 15.1884 8.10407 15.1186L8.04503 15.0422C7.98156 14.9567 7.91948 14.8716 7.85878 14.7847C6.1788 12.4059 5.57511 9.12501 6.91785 6.43064M10.4616 6.08129C9.35859 7.72874 9.4186 9.93424 10.2789 11.6766C10.4231 11.9687 10.5853 12.2521 10.7667 12.5218C10.932 12.7677 11.1152 13.0602 11.3345 13.2577C11.414 13.3486 11.4971 13.4373 11.582 13.5244L11.6472 13.5911C11.7296 13.6741 11.8133 13.7556 11.9 13.8349L11.9102 13.844L11.9127 13.8466C12.0085 13.9339 12.1074 14.0176 12.2079 14.1002L12.275 14.1545C12.3758 14.2347 12.4785 14.3134 12.5837 14.3886L12.5927 14.3956C12.6392 14.4289 12.6865 14.4599 12.7336 14.4921L12.8004 14.5379C12.8756 14.588 12.9518 14.6368 13.0292 14.6836L13.0617 14.7031C13.1285 14.743 13.1961 14.7823 13.264 14.8205L13.3361 14.8594C13.3829 14.8848 13.4298 14.9108 13.4775 14.9355L13.499 14.9455C13.5962 14.9952 13.6942 15.0431 13.7943 15.0883L13.8596 15.1162C13.9396 15.1515 14.0205 15.1859 14.1015 15.2181L14.2052 15.2575C14.2789 15.286 14.3529 15.3118 14.4274 15.3378L14.528 15.3712C14.634 15.4054 14.7388 15.4486 14.8493 15.4677C20.5437 16.447 21.8583 11.8957 21.8583 11.8957C20.6734 13.6674 18.3784 14.5128 15.9295 13.8528C15.8206 13.8231 15.7135 13.7909 15.6069 13.7561L15.51 13.7235C15.4342 13.6981 15.359 13.6711 15.2844 13.6428L15.1827 13.6035C15.1008 13.5708 15.0201 13.5372 14.9399 13.5019L14.8745 13.4732C14.7739 13.4278 14.6749 13.3799 14.5775 13.3298C14.5273 13.3044 14.4779 13.2775 14.4284 13.2511L14.3424 13.2052C14.2791 13.1696 14.216 13.1326 14.1539 13.0947L14.1089 13.0681C14.0317 13.0215 13.9558 12.9732 13.8806 12.9234L13.8117 12.8758C13.7621 12.8425 13.7126 12.8085 13.6639 12.7743C13.559 12.6991 13.4568 12.6204 13.3561 12.5406L13.2868 12.4839C12.215 11.6055 11.3652 10.4047 10.9613 9.04335C10.5379 7.63157 10.6292 6.0467 11.3627 4.76037M14.4431 4.64913C13.7929 5.64237 13.729 6.87588 14.1802 7.97274C14.656 9.13721 15.6308 10.0505 16.7686 10.4838C16.8155 10.5018 16.8625 10.5178 16.9099 10.5346L16.9723 10.5552C17.0394 10.577 17.1059 10.6024 17.1751 10.616C20.3194 11.2467 21.1723 8.94115 21.3992 8.6017C20.6522 9.71823 19.3967 9.9862 17.8563 9.59809C17.7346 9.56752 17.6009 9.52188 17.4836 9.47868C17.3332 9.42299 17.185 9.35955 17.041 9.28792C16.7675 9.15142 16.5067 8.98593 16.265 8.79647C14.8866 7.71066 14.0303 5.63964 14.9298 3.953" fill="#0868AC"/>
</svg>
