<svg xmlns="http://www.w3.org/2000/svg" xmlns:xlink="http://www.w3.org/1999/xlink" width="500" zoomAndPan="magnify" viewBox="0 0 375 374.999991" height="500" preserveAspectRatio="xMidYMid meet" version="1.0"><defs><g/><clipPath id="df0b9286e1"><path d="M 114.453125 101.335938 L 188.703125 101.335938 L 188.703125 204.835938 L 114.453125 204.835938 Z M 114.453125 101.335938 " clip-rule="nonzero"/></clipPath><clipPath id="40bff69ef3"><path d="M 149.585938 94.585938 L 188.585938 94.585938 L 188.585938 129.835938 L 149.585938 129.835938 Z M 149.585938 94.585938 " clip-rule="nonzero"/></clipPath><clipPath id="3281b7e74e"><path d="M 166.664062 97.585938 L 276 97.585938 L 276 220.585938 L 166.664062 220.585938 Z M 166.664062 97.585938 " clip-rule="nonzero"/></clipPath><clipPath id="2c2e540330"><path d="M 166.664062 96.085938 L 276 96.085938 L 276 219.085938 L 166.664062 219.085938 Z M 166.664062 96.085938 " clip-rule="nonzero"/></clipPath><clipPath id="d971042bc8"><path d="M 166.664062 96.835938 L 276 96.835938 L 276 219.835938 L 166.664062 219.835938 Z M 166.664062 96.835938 " clip-rule="nonzero"/></clipPath></defs><g clip-path="url(#df0b9286e1)"><path fill="#ff5c00" d="M 225.535156 157.109375 L 230.097656 157.109375 C 245.46875 157.109375 257.96875 144.652344 257.96875 129.355469 C 257.96875 114.054688 245.46875 101.597656 230.097656 101.597656 L 185.222656 101.597656 C 184.691406 101.597656 184.1875 101.898438 183.945312 102.375 C 183.699219 102.847656 183.742188 103.421875 184.046875 103.867188 L 219.953125 154.242188 L 185.222656 154.242188 C 184.433594 154.242188 183.785156 154.886719 183.785156 155.675781 L 183.785156 198.488281 L 117.066406 102.214844 C 116.707031 101.699219 116.0625 101.484375 115.457031 101.671875 C 114.855469 101.855469 114.453125 102.417969 114.453125 103.046875 L 114.453125 203.09375 C 114.453125 203.882812 115.097656 204.527344 115.890625 204.527344 C 116.679688 204.527344 117.324219 203.882812 117.324219 203.09375 L 117.324219 107.613281 L 184.03125 203.882812 C 184.304688 204.269531 184.75 204.5 185.207031 204.5 C 185.351562 204.5 185.496094 204.472656 185.636719 204.441406 C 186.242188 204.257812 186.640625 203.695312 186.640625 203.066406 L 186.640625 157.109375 L 222.003906 157.109375 L 255.359375 203.910156 C 255.644531 204.300781 256.074219 204.515625 256.535156 204.515625 C 256.820312 204.515625 257.109375 204.429688 257.367188 204.242188 C 258.011719 203.78125 258.15625 202.878906 257.699219 202.246094 Z M 188.007812 104.46875 L 230.097656 104.46875 C 243.890625 104.46875 255.101562 115.636719 255.101562 129.355469 C 255.101562 143.074219 243.878906 154.242188 230.097656 154.242188 L 223.496094 154.242188 Z M 188.007812 104.46875 " fill-opacity="1" fill-rule="nonzero"/></g><path stroke-linecap="round" transform="matrix(0, -0.75, 0.75, 0, 114.554212, 206.53591)" fill="none" stroke-linejoin="miter" d="M 2.001006 2.000634 L 135.167681 2.000634 " stroke="#ff5c00" stroke-width="4" stroke-opacity="1" stroke-miterlimit="4"/><path stroke-linecap="round" transform="matrix(-0.42788, -0.61597, 0.61597, -0.42788, 183.716419, 202.09358)" fill="none" stroke-linejoin="miter" d="M 1.99701 1.999791 L 159.897322 1.999484 " stroke="#ff5c00" stroke-width="4" stroke-opacity="1" stroke-miterlimit="4"/><g clip-path="url(#40bff69ef3)"><path fill="#ff5c00" d="M 177.042969 94.65625 C 176.390625 94.632812 175.707031 94.746094 175.019531 94.96875 C 173.644531 95.414062 172.207031 96.28125 170.730469 97.484375 C 170.152344 97.953125 169.570312 98.492188 168.984375 99.0625 C 168.410156 98.507812 167.839844 97.984375 167.273438 97.523438 C 165.796875 96.324219 164.363281 95.457031 162.992188 95.011719 C 161.621094 94.566406 160.261719 94.554688 159.140625 95.199219 C 158.019531 95.847656 157.351562 97.03125 157.050781 98.441406 C 156.75 99.847656 156.785156 101.527344 157.085938 103.402344 C 157.191406 104.054688 157.339844 104.738281 157.511719 105.4375 C 156.871094 105.628906 156.25 105.835938 155.675781 106.058594 C 153.9375 106.738281 152.496094 107.550781 151.449219 108.515625 C 150.402344 109.484375 149.726562 110.65625 149.726562 111.945312 C 149.726562 113.230469 150.402344 114.402344 151.449219 115.371094 C 152.496094 116.335938 153.9375 117.152344 155.675781 117.828125 C 156.289062 118.070312 156.957031 118.285156 157.644531 118.492188 C 157.398438 119.417969 157.195312 120.3125 157.058594 121.164062 C 156.757812 123.042969 156.726562 124.722656 157.027344 126.132812 C 157.328125 127.542969 157.996094 128.738281 159.121094 129.386719 C 160.246094 130.035156 161.617188 130.019531 162.988281 129.574219 C 164.363281 129.128906 165.800781 128.265625 167.277344 127.0625 C 167.847656 126.597656 168.429688 126.066406 169.007812 125.5 C 169.59375 126.070312 170.175781 126.601562 170.75 127.070312 C 172.226562 128.273438 173.664062 129.136719 175.03125 129.582031 C 176.402344 130.027344 177.765625 130.039062 178.882812 129.394531 C 180.003906 128.746094 180.671875 127.5625 180.972656 126.152344 C 181.269531 124.746094 181.238281 123.070312 180.9375 121.191406 C 180.800781 120.339844 180.597656 119.4375 180.351562 118.507812 C 181.0625 118.300781 181.75 118.078125 182.382812 117.828125 C 184.121094 117.152344 185.558594 116.335938 186.605469 115.371094 C 187.65625 114.402344 188.332031 113.230469 188.332031 111.945312 C 188.332031 110.65625 187.65625 109.484375 186.605469 108.515625 C 185.558594 107.550781 184.121094 106.738281 182.382812 106.058594 C 181.800781 105.832031 181.167969 105.625 180.519531 105.429688 C 180.691406 104.726562 180.84375 104.039062 180.949219 103.382812 C 181.25 101.503906 181.28125 99.824219 180.980469 98.414062 C 180.679688 97 180.007812 95.808594 178.882812 95.160156 C 178.320312 94.835938 177.699219 94.675781 177.042969 94.65625 Z M 176.96875 96.363281 C 177.378906 96.375 177.726562 96.472656 178.027344 96.644531 C 178.625 96.992188 179.070312 97.664062 179.304688 98.769531 C 179.542969 99.878906 179.53125 101.375 179.253906 103.113281 C 179.160156 103.707031 179.019531 104.335938 178.863281 104.980469 C 177.148438 104.566406 175.265625 104.261719 173.261719 104.082031 C 172.257812 102.6875 171.222656 101.417969 170.179688 100.292969 C 170.730469 99.753906 171.28125 99.25 171.8125 98.816406 C 173.179688 97.707031 174.46875 96.953125 175.546875 96.601562 C 176.085938 96.425781 176.554688 96.351562 176.96875 96.363281 Z M 161.046875 96.367188 C 161.460938 96.355469 161.933594 96.433594 162.472656 96.605469 C 163.554688 96.957031 164.847656 97.710938 166.210938 98.820312 C 166.734375 99.25 167.273438 99.742188 167.8125 100.265625 C 166.761719 101.402344 165.71875 102.683594 164.707031 104.089844 C 162.710938 104.273438 160.839844 104.582031 159.132812 104.996094 C 158.976562 104.355469 158.835938 103.726562 158.742188 103.136719 C 158.460938 101.398438 158.453125 99.902344 158.691406 98.789062 C 158.929688 97.679688 159.375 97 159.980469 96.652344 C 160.28125 96.476562 160.636719 96.378906 161.046875 96.367188 Z M 169.007812 101.5 C 169.691406 102.242188 170.375 103.058594 171.054688 103.933594 C 170.386719 103.90625 169.714844 103.886719 169.027344 103.886719 C 168.332031 103.886719 167.644531 103.90625 166.964844 103.933594 C 167.640625 103.058594 168.324219 102.242188 169.007812 101.5 Z M 169.027344 105.582031 C 170.167969 105.582031 171.28125 105.628906 172.363281 105.707031 C 173.105469 106.777344 173.835938 107.910156 174.527344 109.113281 C 175.136719 110.164062 175.6875 111.21875 176.1875 112.257812 C 175.683594 113.3125 175.121094 114.378906 174.503906 115.449219 C 173.960938 116.390625 173.394531 117.285156 172.816406 118.144531 C 171.59375 118.246094 170.328125 118.304688 169.027344 118.304688 C 167.695312 118.304688 166.402344 118.246094 165.152344 118.136719 C 164.585938 117.289062 164.027344 116.40625 163.492188 115.480469 C 162.878906 114.414062 162.320312 113.351562 161.816406 112.296875 C 162.324219 111.242188 162.882812 110.167969 163.503906 109.097656 C 164.191406 107.902344 164.917969 106.773438 165.65625 105.710938 C 166.75 105.628906 167.875 105.582031 169.027344 105.582031 Z M 174.523438 105.917969 C 175.90625 106.089844 177.203125 106.332031 178.410156 106.617188 C 178.054688 107.792969 177.613281 109.019531 177.078125 110.289062 C 176.730469 109.617188 176.371094 108.945312 175.980469 108.273438 C 175.507812 107.457031 175.019531 106.679688 174.523438 105.917969 Z M 163.445312 105.929688 C 162.960938 106.675781 162.480469 107.441406 162.019531 108.238281 C 161.625 108.921875 161.257812 109.601562 160.90625 110.28125 C 160.375 109.023438 159.9375 107.800781 159.582031 106.632812 C 160.78125 106.34375 162.070312 106.105469 163.445312 105.929688 Z M 180.070312 107.0625 C 180.667969 107.242188 181.242188 107.429688 181.765625 107.636719 C 183.371094 108.261719 184.636719 109.003906 185.457031 109.761719 C 186.28125 110.519531 186.636719 111.242188 186.636719 111.945312 C 186.636719 112.644531 186.28125 113.367188 185.457031 114.125 C 184.636719 114.882812 183.371094 115.625 181.765625 116.25 C 181.183594 116.480469 180.539062 116.6875 179.871094 116.882812 C 179.394531 115.410156 178.785156 113.871094 178.058594 112.296875 C 178.894531 110.492188 179.566406 108.734375 180.070312 107.0625 Z M 157.957031 107.070312 C 158.457031 108.726562 159.121094 110.46875 159.945312 112.253906 C 159.214844 113.835938 158.601562 115.382812 158.125 116.867188 C 157.476562 116.675781 156.855469 116.472656 156.289062 116.25 C 154.6875 115.625 153.421875 114.882812 152.597656 114.125 C 151.777344 113.367188 151.421875 112.644531 151.421875 111.945312 C 151.421875 111.242188 151.777344 110.519531 152.597656 109.761719 C 153.421875 109.003906 154.6875 108.261719 156.289062 107.636719 C 156.808594 107.433594 157.375 107.25 157.957031 107.070312 Z M 169.027344 108.089844 C 166.722656 108.089844 164.835938 109.976562 164.835938 112.285156 C 164.835938 114.589844 166.722656 116.480469 169.027344 116.480469 C 171.335938 116.480469 173.222656 114.589844 173.222656 112.285156 C 173.222656 109.976562 171.335938 108.089844 169.027344 108.089844 Z M 160.925781 114.269531 C 161.28125 114.949219 161.648438 115.636719 162.042969 116.320312 C 162.351562 116.855469 162.667969 117.378906 162.988281 117.890625 C 161.863281 117.734375 160.792969 117.539062 159.785156 117.304688 C 160.105469 116.324219 160.488281 115.308594 160.925781 114.269531 Z M 177.097656 114.269531 C 177.539062 115.308594 177.921875 116.328125 178.242188 117.308594 C 177.234375 117.542969 176.160156 117.742188 175.027344 117.898438 C 175.355469 117.378906 175.675781 116.847656 175.988281 116.304688 C 176.382812 115.625 176.746094 114.945312 177.097656 114.269531 Z M 159.304688 118.933594 C 160.820312 119.292969 162.464844 119.566406 164.210938 119.75 C 165.375 121.433594 166.589844 122.945312 167.8125 124.269531 C 167.265625 124.800781 166.722656 125.300781 166.195312 125.734375 C 164.832031 126.84375 163.539062 127.597656 162.460938 127.945312 C 161.382812 128.292969 160.578125 128.25 159.980469 127.902344 C 159.378906 127.558594 158.941406 126.882812 158.703125 125.777344 C 158.46875 124.667969 158.472656 123.171875 158.753906 121.4375 C 158.878906 120.648438 159.066406 119.808594 159.304688 118.933594 Z M 178.726562 118.9375 C 178.964844 119.820312 179.152344 120.664062 179.28125 121.457031 C 179.558594 123.195312 179.566406 124.691406 179.328125 125.800781 C 179.09375 126.914062 178.648438 127.59375 178.046875 127.941406 C 177.441406 128.289062 176.628906 128.335938 175.546875 127.984375 C 174.46875 127.636719 173.175781 126.882812 171.808594 125.769531 C 171.277344 125.335938 170.730469 124.832031 170.179688 124.296875 C 171.410156 122.96875 172.632812 121.445312 173.804688 119.75 C 175.554688 119.574219 177.203125 119.296875 178.726562 118.9375 Z M 166.402344 119.921875 C 167.261719 119.96875 168.132812 120 169.027344 120 C 169.894531 120 170.738281 119.96875 171.570312 119.925781 C 170.71875 121.074219 169.851562 122.121094 168.984375 123.0625 C 168.121094 122.117188 167.253906 121.070312 166.402344 119.921875 Z M 166.402344 119.921875 " fill-opacity="1" fill-rule="evenodd"/></g><g clip-path="url(#3281b7e74e)"><path fill="#ff5c00" d="M 225.625 160.582031 C 225.625 158.800781 224.183594 157.355469 222.402344 157.355469 C 220.621094 157.355469 219.175781 158.800781 219.175781 160.582031 C 219.175781 161.851562 219.910156 162.949219 220.976562 163.472656 L 220.976562 214.578125 C 219.910156 215.105469 219.175781 216.203125 219.175781 217.472656 C 219.175781 219.253906 220.621094 220.699219 222.402344 220.699219 C 224.183594 220.699219 225.625 219.253906 225.625 217.472656 C 225.625 216.203125 224.890625 215.105469 223.824219 214.578125 L 223.824219 163.472656 C 224.890625 162.949219 225.625 161.851562 225.625 160.582031 Z M 209.707031 179.550781 L 186.425781 179.550781 L 186.425781 201.890625 L 209.707031 201.890625 Z M 212.554688 178.128906 L 212.554688 203.3125 C 212.554688 204.097656 211.914062 204.734375 211.128906 204.734375 L 185.003906 204.734375 C 184.21875 204.734375 183.578125 204.097656 183.578125 203.3125 L 183.578125 178.128906 C 183.578125 177.339844 184.21875 176.703125 185.003906 176.703125 L 211.128906 176.703125 C 211.914062 176.703125 212.554688 177.339844 212.554688 178.128906 Z M 272.3125 130.574219 C 269.871094 124.214844 266.261719 118.652344 261.585938 114.042969 C 251.875 104.457031 237.964844 99.390625 221.363281 99.390625 L 187.898438 99.390625 C 187.371094 98.324219 186.273438 97.589844 185.003906 97.589844 C 183.222656 97.589844 181.777344 99.035156 181.777344 100.816406 C 181.777344 102.597656 183.222656 104.039062 185.003906 104.039062 C 186.273438 104.039062 187.371094 103.304688 187.898438 102.238281 L 221.363281 102.238281 C 252.816406 102.238281 273.136719 121.566406 273.136719 151.476562 L 273.136719 151.769531 C 273.136719 176.796875 258.628906 195.289062 235.136719 200.414062 L 235.136719 178.789062 C 236.207031 178.265625 236.941406 177.167969 236.941406 175.894531 C 236.941406 174.113281 235.496094 172.671875 233.714844 172.671875 C 231.933594 172.671875 230.492188 174.113281 230.492188 175.894531 C 230.492188 177.167969 231.226562 178.265625 232.289062 178.789062 L 232.289062 202.15625 L 232.292969 202.167969 C 232.292969 202.183594 232.292969 202.203125 232.292969 202.21875 L 232.292969 202.25 C 232.296875 202.261719 232.296875 202.273438 232.296875 202.289062 C 232.300781 202.300781 232.300781 202.316406 232.300781 202.332031 L 232.304688 202.355469 C 232.308594 202.375 232.3125 202.390625 232.316406 202.410156 L 232.316406 202.421875 C 232.324219 202.460938 232.332031 202.5 232.34375 202.542969 L 232.347656 202.546875 C 232.359375 202.585938 232.371094 202.625 232.382812 202.660156 L 232.386719 202.671875 C 232.402344 202.707031 232.417969 202.742188 232.433594 202.777344 L 232.4375 202.785156 C 232.453125 202.816406 232.472656 202.847656 232.488281 202.878906 L 232.496094 202.890625 C 232.515625 202.921875 232.535156 202.949219 232.554688 202.976562 L 232.570312 203 C 232.589844 203.027344 232.609375 203.050781 232.628906 203.074219 L 232.648438 203.097656 C 232.667969 203.121094 232.691406 203.144531 232.714844 203.167969 L 232.730469 203.183594 C 232.757812 203.207031 232.78125 203.234375 232.808594 203.253906 L 232.8125 203.257812 C 232.84375 203.28125 232.871094 203.304688 232.902344 203.324219 L 232.910156 203.332031 C 232.941406 203.351562 232.972656 203.371094 233.003906 203.390625 L 233.015625 203.394531 C 233.046875 203.414062 233.082031 203.429688 233.113281 203.445312 L 233.121094 203.449219 C 233.191406 203.480469 233.261719 203.507812 233.335938 203.527344 L 233.351562 203.53125 C 233.382812 203.539062 233.417969 203.546875 233.453125 203.554688 L 233.480469 203.558594 C 233.511719 203.566406 233.542969 203.570312 233.578125 203.574219 L 233.609375 203.574219 C 233.636719 203.578125 233.667969 203.578125 233.695312 203.578125 L 233.726562 203.578125 C 233.761719 203.578125 233.796875 203.578125 233.832031 203.574219 L 233.851562 203.574219 C 233.890625 203.570312 233.933594 203.5625 233.972656 203.554688 L 233.988281 203.554688 L 234.007812 203.550781 C 240.535156 202.320312 246.515625 200.136719 251.785156 197.054688 C 256.929688 194.046875 261.375 190.199219 265.003906 185.617188 C 272.1875 176.554688 275.984375 164.851562 275.984375 151.769531 L 275.984375 151.476562 C 275.984375 143.949219 274.75 136.917969 272.3125 130.574219 Z M 246.335938 151.917969 L 246.335938 152.210938 C 246.335938 155.285156 245.964844 158.140625 245.226562 160.734375 C 243.632812 160.929688 242.394531 162.285156 242.394531 163.933594 C 242.394531 165.714844 243.839844 167.160156 245.621094 167.160156 C 247.402344 167.160156 248.84375 165.714844 248.84375 163.933594 C 248.84375 163.050781 248.492188 162.253906 247.917969 161.671875 C 248.761719 158.78125 249.183594 155.613281 249.183594 152.210938 L 249.183594 151.917969 C 249.183594 143.574219 246.566406 136.613281 241.617188 131.789062 C 236.773438 127.070312 229.910156 124.574219 221.769531 124.574219 L 211.128906 124.574219 C 210.34375 124.574219 209.707031 125.214844 209.707031 126 L 209.707031 154.117188 L 186.425781 154.117188 L 186.425781 131.386719 C 187.492188 130.859375 188.226562 129.761719 188.226562 128.492188 C 188.226562 126.710938 186.785156 125.265625 185.003906 125.265625 C 183.222656 125.265625 181.777344 126.710938 181.777344 128.492188 C 181.777344 129.761719 182.511719 130.859375 183.578125 131.386719 L 183.578125 155.542969 C 183.578125 156.328125 184.21875 156.964844 185.003906 156.964844 L 211.128906 156.964844 C 211.914062 156.964844 212.554688 156.328125 212.554688 155.542969 L 212.554688 127.421875 L 221.769531 127.421875 C 236.921875 127.421875 246.335938 136.808594 246.335938 151.917969 Z M 172.8125 114.867188 C 172.285156 115.933594 171.1875 116.667969 169.917969 116.667969 C 168.136719 116.667969 166.695312 115.222656 166.695312 113.441406 C 166.695312 111.660156 168.136719 110.21875 169.917969 110.21875 C 171.1875 110.21875 172.285156 110.953125 172.8125 112.019531 L 223.917969 112.019531 C 224.441406 110.953125 225.539062 110.21875 226.808594 110.21875 C 228.589844 110.21875 230.035156 111.660156 230.035156 113.441406 C 230.035156 115.222656 228.589844 116.667969 226.808594 116.667969 C 225.539062 116.667969 224.441406 115.933594 223.917969 114.867188 L 172.8125 114.867188 " fill-opacity="1" fill-rule="nonzero"/></g><g fill="#ff5c00" fill-opacity="1"><g transform="translate(89.856854, 245.182001)"><g><path d="M 19.859375 0 L 14.578125 0 L 6.046875 -14.828125 L 5.921875 -14.828125 C 6.097656 -12.210938 6.1875 -10.347656 6.1875 -9.234375 L 6.1875 0 L 2.46875 0 L 2.46875 -19.609375 L 7.71875 -19.609375 L 16.234375 -4.921875 L 16.328125 -4.921875 C 16.191406 -7.472656 16.125 -9.273438 16.125 -10.328125 L 16.125 -19.609375 L 19.859375 -19.609375 Z M 19.859375 0 "/></g></g></g><g fill="#ff5c00" fill-opacity="1"><g transform="translate(121.544999, 245.182001)"><g><path d="M 14.46875 0 L 13.046875 -4.671875 L 5.90625 -4.671875 L 4.484375 0 L 0 0 L 6.921875 -19.6875 L 12 -19.6875 L 18.953125 0 Z M 12.0625 -8.15625 C 10.75 -12.382812 10.007812 -14.773438 9.84375 -15.328125 C 9.675781 -15.878906 9.554688 -16.316406 9.484375 -16.640625 C 9.191406 -15.492188 8.347656 -12.664062 6.953125 -8.15625 Z M 12.0625 -8.15625 "/></g></g></g><g fill="#ff5c00" fill-opacity="1"><g transform="translate(149.854642, 245.182001)"><g><path d="M 10.765625 0 L 6.046875 -15.390625 L 5.921875 -15.390625 C 6.097656 -12.253906 6.1875 -10.164062 6.1875 -9.125 L 6.1875 0 L 2.46875 0 L 2.46875 -19.609375 L 8.125 -19.609375 L 12.765625 -4.609375 L 12.84375 -4.609375 L 17.765625 -19.609375 L 23.4375 -19.609375 L 23.4375 0 L 19.5625 0 L 19.5625 -9.28125 C 19.5625 -9.71875 19.566406 -10.222656 19.578125 -10.796875 C 19.585938 -11.367188 19.644531 -12.890625 19.75 -15.359375 L 19.640625 -15.359375 L 14.578125 0 Z M 10.765625 0 "/></g></g></g><g fill="#ff5c00" fill-opacity="1"><g transform="translate(185.108983, 245.182001)"><g><path d="M 6.625 -10.90625 L 7.96875 -10.90625 C 9.28125 -10.90625 10.25 -11.125 10.875 -11.5625 C 11.5 -12 11.8125 -12.6875 11.8125 -13.625 C 11.8125 -14.550781 11.488281 -15.210938 10.84375 -15.609375 C 10.207031 -16.003906 9.222656 -16.203125 7.890625 -16.203125 L 6.625 -16.203125 Z M 6.625 -7.53125 L 6.625 0 L 2.46875 0 L 2.46875 -19.609375 L 8.1875 -19.609375 C 10.84375 -19.609375 12.8125 -19.125 14.09375 -18.15625 C 15.375 -17.1875 16.015625 -15.710938 16.015625 -13.734375 C 16.015625 -12.578125 15.695312 -11.550781 15.0625 -10.65625 C 14.425781 -9.757812 13.523438 -9.054688 12.359375 -8.546875 C 15.316406 -4.140625 17.242188 -1.289062 18.140625 0 L 13.515625 0 L 8.84375 -7.53125 Z M 6.625 -7.53125 "/></g></g></g><g fill="#ff5c00" fill-opacity="1"><g transform="translate(212.600808, 245.182001)"><g><path d="M 14.46875 0 L 13.046875 -4.671875 L 5.90625 -4.671875 L 4.484375 0 L 0 0 L 6.921875 -19.6875 L 12 -19.6875 L 18.953125 0 Z M 12.0625 -8.15625 C 10.75 -12.382812 10.007812 -14.773438 9.84375 -15.328125 C 9.675781 -15.878906 9.554688 -16.316406 9.484375 -16.640625 C 9.191406 -15.492188 8.347656 -12.664062 6.953125 -8.15625 Z M 12.0625 -8.15625 "/></g></g></g><g fill="#ff5c00" fill-opacity="1"><g transform="translate(240.910456, 245.182001)"><g><path d="M 10.03125 0 L 5.875 0 L 5.875 -16.15625 L 0.546875 -16.15625 L 0.546875 -19.609375 L 15.359375 -19.609375 L 15.359375 -16.15625 L 10.03125 -16.15625 Z M 10.03125 0 "/></g></g></g><g fill="#ff5c00" fill-opacity="1"><g transform="translate(266.176767, 245.182001)"><g><path d="M 14.46875 0 L 13.046875 -4.671875 L 5.90625 -4.671875 L 4.484375 0 L 0 0 L 6.921875 -19.6875 L 12 -19.6875 L 18.953125 0 Z M 12.0625 -8.15625 C 10.75 -12.382812 10.007812 -14.773438 9.84375 -15.328125 C 9.675781 -15.878906 9.554688 -16.316406 9.484375 -16.640625 C 9.191406 -15.492188 8.347656 -12.664062 6.953125 -8.15625 Z M 12.0625 -8.15625 "/></g></g></g><g fill="#ff5c00" fill-opacity="1"><g transform="translate(159.3011, 267.760499)"><g><path d="M 11.40625 -6.078125 C 11.40625 -4.117188 10.84375 -2.613281 9.71875 -1.5625 C 8.601562 -0.519531 6.988281 0 4.875 0 L 1.5 0 L 1.5 -11.9375 L 5.25 -11.9375 C 7.195312 -11.9375 8.707031 -11.421875 9.78125 -10.390625 C 10.863281 -9.359375 11.40625 -7.921875 11.40625 -6.078125 Z M 8.78125 -6.015625 C 8.78125 -8.578125 7.644531 -9.859375 5.375 -9.859375 L 4.03125 -9.859375 L 4.03125 -2.09375 L 5.125 -2.09375 C 7.5625 -2.09375 8.78125 -3.398438 8.78125 -6.015625 Z M 8.78125 -6.015625 "/></g></g></g><g fill="#ff5c00" fill-opacity="1"><g transform="translate(183.308316, 267.760499)"><g><path d="M 8.8125 0 L 7.9375 -2.84375 L 3.59375 -2.84375 L 2.734375 0 L 0 0 L 4.21875 -11.984375 L 7.3125 -11.984375 L 11.53125 0 Z M 7.34375 -4.96875 C 6.539062 -7.539062 6.085938 -8.992188 5.984375 -9.328125 C 5.890625 -9.671875 5.816406 -9.9375 5.765625 -10.125 C 5.585938 -9.425781 5.078125 -7.707031 4.234375 -4.96875 Z M 7.34375 -4.96875 "/></g></g></g><g fill="#ff5c00" fill-opacity="1"><g transform="translate(206.47509, 267.760499)"><g><path d="M 8.546875 -3.3125 C 8.546875 -2.238281 8.15625 -1.390625 7.375 -0.765625 C 6.601562 -0.148438 5.523438 0.15625 4.140625 0.15625 C 2.867188 0.15625 1.742188 -0.0820312 0.765625 -0.5625 L 0.765625 -2.90625 C 1.566406 -2.550781 2.25 -2.296875 2.8125 -2.140625 C 3.375 -1.992188 3.882812 -1.921875 4.34375 -1.921875 C 4.894531 -1.921875 5.316406 -2.023438 5.609375 -2.234375 C 5.910156 -2.453125 6.0625 -2.769531 6.0625 -3.1875 C 6.0625 -3.425781 5.992188 -3.632812 5.859375 -3.8125 C 5.734375 -4 5.546875 -4.175781 5.296875 -4.34375 C 5.046875 -4.507812 4.53125 -4.78125 3.75 -5.15625 C 3.019531 -5.5 2.472656 -5.828125 2.109375 -6.140625 C 1.742188 -6.453125 1.453125 -6.816406 1.234375 -7.234375 C 1.015625 -7.660156 0.90625 -8.148438 0.90625 -8.703125 C 0.90625 -9.765625 1.257812 -10.597656 1.96875 -11.203125 C 2.6875 -11.804688 3.679688 -12.109375 4.953125 -12.109375 C 5.566406 -12.109375 6.15625 -12.035156 6.71875 -11.890625 C 7.28125 -11.742188 7.867188 -11.535156 8.484375 -11.265625 L 7.671875 -9.296875 C 7.035156 -9.554688 6.507812 -9.738281 6.09375 -9.84375 C 5.675781 -9.945312 5.265625 -10 4.859375 -10 C 4.378906 -10 4.007812 -9.882812 3.75 -9.65625 C 3.5 -9.4375 3.375 -9.148438 3.375 -8.796875 C 3.375 -8.566406 3.425781 -8.367188 3.53125 -8.203125 C 3.632812 -8.035156 3.800781 -7.875 4.03125 -7.71875 C 4.257812 -7.570312 4.789062 -7.296875 5.625 -6.890625 C 6.75 -6.359375 7.515625 -5.820312 7.921875 -5.28125 C 8.335938 -4.75 8.546875 -4.09375 8.546875 -3.3125 Z M 8.546875 -3.3125 "/></g></g></g><path stroke-linecap="round" transform="matrix(0.00194283, -0.749997, 0.749997, 0.00194283, 112.67903, 206.53591)" fill="none" stroke-linejoin="miter" d="M 2.000987 2.000909 L 139.173329 1.999739 " stroke="#ff5c00" stroke-width="4" stroke-opacity="1" stroke-miterlimit="4"/><g clip-path="url(#2c2e540330)"><path fill="#ff5c00" d="M 225.625 159.082031 C 225.625 157.300781 224.183594 155.855469 222.402344 155.855469 C 220.621094 155.855469 219.175781 157.300781 219.175781 159.082031 C 219.175781 160.351562 219.910156 161.449219 220.976562 161.972656 L 220.976562 213.078125 C 219.910156 213.605469 219.175781 214.703125 219.175781 215.972656 C 219.175781 217.753906 220.621094 219.199219 222.402344 219.199219 C 224.183594 219.199219 225.625 217.753906 225.625 215.972656 C 225.625 214.703125 224.890625 213.605469 223.824219 213.078125 L 223.824219 161.972656 C 224.890625 161.449219 225.625 160.351562 225.625 159.082031 Z M 209.707031 178.050781 L 186.425781 178.050781 L 186.425781 200.390625 L 209.707031 200.390625 Z M 212.554688 176.628906 L 212.554688 201.8125 C 212.554688 202.597656 211.914062 203.234375 211.128906 203.234375 L 185.003906 203.234375 C 184.21875 203.234375 183.578125 202.597656 183.578125 201.8125 L 183.578125 176.628906 C 183.578125 175.839844 184.21875 175.203125 185.003906 175.203125 L 211.128906 175.203125 C 211.914062 175.203125 212.554688 175.839844 212.554688 176.628906 Z M 272.3125 129.074219 C 269.871094 122.714844 266.261719 117.152344 261.585938 112.542969 C 251.875 102.957031 237.964844 97.890625 221.363281 97.890625 L 187.898438 97.890625 C 187.371094 96.824219 186.273438 96.089844 185.003906 96.089844 C 183.222656 96.089844 181.777344 97.535156 181.777344 99.316406 C 181.777344 101.097656 183.222656 102.539062 185.003906 102.539062 C 186.273438 102.539062 187.371094 101.804688 187.898438 100.738281 L 221.363281 100.738281 C 252.816406 100.738281 273.136719 120.066406 273.136719 149.976562 L 273.136719 150.269531 C 273.136719 175.296875 258.628906 193.789062 235.136719 198.914062 L 235.136719 177.289062 C 236.207031 176.765625 236.941406 175.667969 236.941406 174.394531 C 236.941406 172.613281 235.496094 171.171875 233.714844 171.171875 C 231.933594 171.171875 230.492188 172.613281 230.492188 174.394531 C 230.492188 175.667969 231.226562 176.765625 232.289062 177.289062 L 232.289062 200.65625 L 232.292969 200.667969 C 232.292969 200.683594 232.292969 200.703125 232.292969 200.71875 L 232.292969 200.75 C 232.296875 200.761719 232.296875 200.773438 232.296875 200.789062 C 232.300781 200.800781 232.300781 200.816406 232.300781 200.832031 L 232.304688 200.855469 C 232.308594 200.875 232.3125 200.890625 232.316406 200.910156 L 232.316406 200.921875 C 232.324219 200.960938 232.332031 201 232.34375 201.042969 L 232.347656 201.046875 C 232.359375 201.085938 232.371094 201.125 232.382812 201.160156 L 232.386719 201.171875 C 232.402344 201.207031 232.417969 201.242188 232.433594 201.277344 L 232.4375 201.285156 C 232.453125 201.316406 232.472656 201.347656 232.488281 201.378906 L 232.496094 201.390625 C 232.515625 201.421875 232.535156 201.449219 232.554688 201.476562 L 232.570312 201.5 C 232.589844 201.527344 232.609375 201.550781 232.628906 201.574219 L 232.648438 201.597656 C 232.667969 201.621094 232.691406 201.644531 232.714844 201.667969 L 232.730469 201.683594 C 232.757812 201.707031 232.78125 201.734375 232.808594 201.753906 L 232.8125 201.757812 C 232.84375 201.78125 232.871094 201.804688 232.902344 201.824219 L 232.910156 201.832031 C 232.941406 201.851562 232.972656 201.871094 233.003906 201.890625 L 233.015625 201.894531 C 233.046875 201.914062 233.082031 201.929688 233.113281 201.945312 L 233.121094 201.949219 C 233.191406 201.980469 233.261719 202.007812 233.335938 202.027344 L 233.351562 202.03125 C 233.382812 202.039062 233.417969 202.046875 233.453125 202.054688 L 233.480469 202.058594 C 233.511719 202.066406 233.542969 202.070312 233.578125 202.074219 L 233.609375 202.074219 C 233.636719 202.078125 233.667969 202.078125 233.695312 202.078125 L 233.726562 202.078125 C 233.761719 202.078125 233.796875 202.078125 233.832031 202.074219 L 233.851562 202.074219 C 233.890625 202.070312 233.933594 202.0625 233.972656 202.054688 L 233.988281 202.054688 L 234.007812 202.050781 C 240.535156 200.820312 246.515625 198.636719 251.785156 195.554688 C 256.929688 192.546875 261.375 188.699219 265.003906 184.117188 C 272.1875 175.054688 275.984375 163.351562 275.984375 150.269531 L 275.984375 149.976562 C 275.984375 142.449219 274.75 135.417969 272.3125 129.074219 Z M 246.335938 150.417969 L 246.335938 150.710938 C 246.335938 153.785156 245.964844 156.640625 245.226562 159.234375 C 243.632812 159.429688 242.394531 160.785156 242.394531 162.433594 C 242.394531 164.214844 243.839844 165.660156 245.621094 165.660156 C 247.402344 165.660156 248.84375 164.214844 248.84375 162.433594 C 248.84375 161.550781 248.492188 160.753906 247.917969 160.171875 C 248.761719 157.28125 249.183594 154.113281 249.183594 150.710938 L 249.183594 150.417969 C 249.183594 142.074219 246.566406 135.113281 241.617188 130.289062 C 236.773438 125.570312 229.910156 123.074219 221.769531 123.074219 L 211.128906 123.074219 C 210.34375 123.074219 209.707031 123.714844 209.707031 124.5 L 209.707031 152.617188 L 186.425781 152.617188 L 186.425781 129.886719 C 187.492188 129.359375 188.226562 128.261719 188.226562 126.992188 C 188.226562 125.210938 186.785156 123.765625 185.003906 123.765625 C 183.222656 123.765625 181.777344 125.210938 181.777344 126.992188 C 181.777344 128.261719 182.511719 129.359375 183.578125 129.886719 L 183.578125 154.042969 C 183.578125 154.828125 184.21875 155.464844 185.003906 155.464844 L 211.128906 155.464844 C 211.914062 155.464844 212.554688 154.828125 212.554688 154.042969 L 212.554688 125.921875 L 221.769531 125.921875 C 236.921875 125.921875 246.335938 135.308594 246.335938 150.417969 Z M 172.8125 113.367188 C 172.285156 114.433594 171.1875 115.167969 169.917969 115.167969 C 168.136719 115.167969 166.695312 113.722656 166.695312 111.941406 C 166.695312 110.160156 168.136719 108.71875 169.917969 108.71875 C 171.1875 108.71875 172.285156 109.453125 172.8125 110.519531 L 223.917969 110.519531 C 224.441406 109.453125 225.539062 108.71875 226.808594 108.71875 C 228.589844 108.71875 230.035156 110.160156 230.035156 111.941406 C 230.035156 113.722656 228.589844 115.167969 226.808594 115.167969 C 225.539062 115.167969 224.441406 114.433594 223.917969 113.367188 L 172.8125 113.367188 " fill-opacity="1" fill-rule="nonzero"/></g><g clip-path="url(#d971042bc8)"><path fill="#ff5c00" d="M 225.625 159.832031 C 225.625 158.050781 224.183594 156.605469 222.402344 156.605469 C 220.621094 156.605469 219.175781 158.050781 219.175781 159.832031 C 219.175781 161.101562 219.910156 162.199219 220.976562 162.722656 L 220.976562 213.828125 C 219.910156 214.355469 219.175781 215.453125 219.175781 216.722656 C 219.175781 218.503906 220.621094 219.949219 222.402344 219.949219 C 224.183594 219.949219 225.625 218.503906 225.625 216.722656 C 225.625 215.453125 224.890625 214.355469 223.824219 213.828125 L 223.824219 162.722656 C 224.890625 162.199219 225.625 161.101562 225.625 159.832031 Z M 209.707031 178.800781 L 186.425781 178.800781 L 186.425781 201.140625 L 209.707031 201.140625 Z M 212.554688 177.378906 L 212.554688 202.5625 C 212.554688 203.347656 211.914062 203.984375 211.128906 203.984375 L 185.003906 203.984375 C 184.21875 203.984375 183.578125 203.347656 183.578125 202.5625 L 183.578125 177.378906 C 183.578125 176.589844 184.21875 175.953125 185.003906 175.953125 L 211.128906 175.953125 C 211.914062 175.953125 212.554688 176.589844 212.554688 177.378906 Z M 272.3125 129.824219 C 269.871094 123.464844 266.261719 117.902344 261.585938 113.292969 C 251.875 103.707031 237.964844 98.640625 221.363281 98.640625 L 187.898438 98.640625 C 187.371094 97.574219 186.273438 96.839844 185.003906 96.839844 C 183.222656 96.839844 181.777344 98.285156 181.777344 100.066406 C 181.777344 101.847656 183.222656 103.289062 185.003906 103.289062 C 186.273438 103.289062 187.371094 102.554688 187.898438 101.488281 L 221.363281 101.488281 C 252.816406 101.488281 273.136719 120.816406 273.136719 150.726562 L 273.136719 151.019531 C 273.136719 176.046875 258.628906 194.539062 235.136719 199.664062 L 235.136719 178.039062 C 236.207031 177.515625 236.941406 176.417969 236.941406 175.144531 C 236.941406 173.363281 235.496094 171.921875 233.714844 171.921875 C 231.933594 171.921875 230.492188 173.363281 230.492188 175.144531 C 230.492188 176.417969 231.226562 177.515625 232.289062 178.039062 L 232.289062 201.40625 L 232.292969 201.417969 C 232.292969 201.433594 232.292969 201.453125 232.292969 201.46875 L 232.292969 201.5 C 232.296875 201.511719 232.296875 201.523438 232.296875 201.539062 C 232.300781 201.550781 232.300781 201.566406 232.300781 201.582031 L 232.304688 201.605469 C 232.308594 201.625 232.3125 201.640625 232.316406 201.660156 L 232.316406 201.671875 C 232.324219 201.710938 232.332031 201.75 232.34375 201.792969 L 232.347656 201.796875 C 232.359375 201.835938 232.371094 201.875 232.382812 201.910156 L 232.386719 201.921875 C 232.402344 201.957031 232.417969 201.992188 232.433594 202.027344 L 232.4375 202.035156 C 232.453125 202.066406 232.472656 202.097656 232.488281 202.128906 L 232.496094 202.140625 C 232.515625 202.171875 232.535156 202.199219 232.554688 202.226562 L 232.570312 202.25 C 232.589844 202.277344 232.609375 202.300781 232.628906 202.324219 L 232.648438 202.347656 C 232.667969 202.371094 232.691406 202.394531 232.714844 202.417969 L 232.730469 202.433594 C 232.757812 202.457031 232.78125 202.484375 232.808594 202.503906 L 232.8125 202.507812 C 232.84375 202.53125 232.871094 202.554688 232.902344 202.574219 L 232.910156 202.582031 C 232.941406 202.601562 232.972656 202.621094 233.003906 202.640625 L 233.015625 202.644531 C 233.046875 202.664062 233.082031 202.679688 233.113281 202.695312 L 233.121094 202.699219 C 233.191406 202.730469 233.261719 202.757812 233.335938 202.777344 L 233.351562 202.78125 C 233.382812 202.789062 233.417969 202.796875 233.453125 202.804688 L 233.480469 202.808594 C 233.511719 202.816406 233.542969 202.820312 233.578125 202.824219 L 233.609375 202.824219 C 233.636719 202.828125 233.667969 202.828125 233.695312 202.828125 L 233.726562 202.828125 C 233.761719 202.828125 233.796875 202.828125 233.832031 202.824219 L 233.851562 202.824219 C 233.890625 202.820312 233.933594 202.8125 233.972656 202.804688 L 233.988281 202.804688 L 234.007812 202.800781 C 240.535156 201.570312 246.515625 199.386719 251.785156 196.304688 C 256.929688 193.296875 261.375 189.449219 265.003906 184.867188 C 272.1875 175.804688 275.984375 164.101562 275.984375 151.019531 L 275.984375 150.726562 C 275.984375 143.199219 274.75 136.167969 272.3125 129.824219 Z M 246.335938 151.167969 L 246.335938 151.460938 C 246.335938 154.535156 245.964844 157.390625 245.226562 159.984375 C 243.632812 160.179688 242.394531 161.535156 242.394531 163.183594 C 242.394531 164.964844 243.839844 166.410156 245.621094 166.410156 C 247.402344 166.410156 248.84375 164.964844 248.84375 163.183594 C 248.84375 162.300781 248.492188 161.503906 247.917969 160.921875 C 248.761719 158.03125 249.183594 154.863281 249.183594 151.460938 L 249.183594 151.167969 C 249.183594 142.824219 246.566406 135.863281 241.617188 131.039062 C 236.773438 126.320312 229.910156 123.824219 221.769531 123.824219 L 211.128906 123.824219 C 210.34375 123.824219 209.707031 124.464844 209.707031 125.25 L 209.707031 153.367188 L 186.425781 153.367188 L 186.425781 130.636719 C 187.492188 130.109375 188.226562 129.011719 188.226562 127.742188 C 188.226562 125.960938 186.785156 124.515625 185.003906 124.515625 C 183.222656 124.515625 181.777344 125.960938 181.777344 127.742188 C 181.777344 129.011719 182.511719 130.109375 183.578125 130.636719 L 183.578125 154.792969 C 183.578125 155.578125 184.21875 156.214844 185.003906 156.214844 L 211.128906 156.214844 C 211.914062 156.214844 212.554688 155.578125 212.554688 154.792969 L 212.554688 126.671875 L 221.769531 126.671875 C 236.921875 126.671875 246.335938 136.058594 246.335938 151.167969 Z M 172.8125 114.117188 C 172.285156 115.183594 171.1875 115.917969 169.917969 115.917969 C 168.136719 115.917969 166.695312 114.472656 166.695312 112.691406 C 166.695312 110.910156 168.136719 109.46875 169.917969 109.46875 C 171.1875 109.46875 172.285156 110.203125 172.8125 111.269531 L 223.917969 111.269531 C 224.441406 110.203125 225.539062 109.46875 226.808594 109.46875 C 228.589844 109.46875 230.035156 110.910156 230.035156 112.691406 C 230.035156 114.472656 228.589844 115.917969 226.808594 115.917969 C 225.539062 115.917969 224.441406 115.183594 223.917969 114.117188 L 172.8125 114.117188 " fill-opacity="1" fill-rule="nonzero"/></g><path stroke-linecap="round" transform="matrix(-0.42788, -0.61597, 0.61597, -0.42788, 183.448351, 201.23782)" fill="none" stroke-linejoin="miter" d="M 2.002081 2.000938 L 159.895144 2.001938 " stroke="#ff5c00" stroke-width="4" stroke-opacity="1" stroke-miterlimit="4"/></svg>