<svg width="354" height="354" viewBox="0 0 354 354" fill="none" xmlns="http://www.w3.org/2000/svg">
<rect x="0.0556641" y="0.110107" width="353.049" height="353.049" rx="4.74688" fill="black"/>
<rect width="77.5883" height="20.5907" transform="matrix(-0.707016 -0.707197 -0.707197 0.707016 160.692 117.352)" fill="#8729B2"/>
<rect width="77.5883" height="20.5907" transform="matrix(-0.707197 0.707016 0.707016 0.707197 146.139 62.4868)" fill="#8729B2"/>
<rect x="192.546" y="221.799" width="77.5883" height="20.5907" transform="rotate(-45.0073 192.546 221.799)" fill="#8729B2"/>
<rect x="207.033" y="166.631" width="77.5883" height="20.5907" transform="rotate(44.9927 207.033 166.631)" fill="#8729B2"/>
<path d="M273.291 95.38C273.291 118.003 254.951 136.343 232.328 136.343C209.705 136.343 191.365 118.003 191.365 95.38C191.365 72.7569 209.705 54.4172 232.328 54.4172C254.951 54.4172 273.291 72.7569 273.291 95.38ZM211.847 95.38C211.847 106.692 221.017 115.861 232.328 115.861C243.64 115.861 252.81 106.692 252.81 95.38C252.81 84.0685 243.64 74.8986 232.328 74.8986C221.017 74.8986 211.847 84.0685 211.847 95.38Z" fill="white"/>
<path d="M79.9289 199.549C79.9289 222.05 98.2686 240.292 120.892 240.292C143.515 240.292 161.854 222.05 161.854 199.549C161.854 177.047 143.515 158.806 120.892 158.806C98.2686 158.806 79.9289 177.047 79.9289 199.549ZM141.373 199.549C141.373 210.8 132.203 219.92 120.892 219.92C109.58 219.92 100.41 210.8 100.41 199.549C100.41 188.298 109.58 179.178 120.892 179.178C132.203 179.178 141.373 188.298 141.373 199.549Z" fill="white"/>
<path d="M92.0586 306.677V294.849H87.788V292.023H99.5951V294.849H95.1988V306.677H92.0586ZM101.812 306.677V303.976H104.261V294.723H101.812V292.023H109.85V294.723H107.401V303.976H109.85V306.677H101.812ZM119.41 306.886C118.335 306.886 117.344 306.705 116.437 306.342C115.544 305.965 114.762 305.442 114.092 304.772C113.436 304.088 112.927 303.285 112.564 302.364C112.201 301.429 112.02 300.41 112.02 299.308C112.02 298.233 112.208 297.242 112.585 296.335C112.962 295.414 113.492 294.618 114.176 293.949C114.86 293.265 115.662 292.734 116.584 292.358C117.505 291.981 118.503 291.792 119.577 291.792C120.275 291.792 120.959 291.89 121.629 292.085C122.313 292.267 122.934 292.539 123.492 292.902C124.064 293.265 124.553 293.697 124.957 294.2L122.989 296.377C122.655 296.042 122.306 295.756 121.943 295.519C121.594 295.267 121.217 295.079 120.812 294.953C120.422 294.814 120.003 294.744 119.556 294.744C118.956 294.744 118.391 294.856 117.861 295.079C117.344 295.302 116.891 295.616 116.5 296.021C116.109 296.412 115.795 296.893 115.558 297.466C115.334 298.024 115.223 298.645 115.223 299.329C115.223 300.027 115.334 300.662 115.558 301.234C115.781 301.792 116.095 302.274 116.5 302.678C116.905 303.069 117.386 303.376 117.944 303.599C118.516 303.809 119.145 303.913 119.828 303.913C120.275 303.913 120.708 303.851 121.126 303.725C121.545 303.599 121.929 303.425 122.278 303.202C122.641 302.978 122.962 302.72 123.241 302.427L124.769 304.876C124.434 305.253 123.98 305.595 123.408 305.902C122.85 306.209 122.222 306.453 121.524 306.635C120.826 306.802 120.121 306.886 119.41 306.886Z" fill="white"/>
<circle cx="140.742" cy="298.107" r="2.61681" fill="#8729B2"/>
<path d="M159.441 306.107V294.279H155.171V291.453H166.978V294.279H162.582V306.107H159.441ZM166.791 306.107L172.527 291.453H175.332L181.047 306.107H177.824L174.872 298.214C174.788 297.991 174.683 297.705 174.558 297.356C174.446 297.007 174.328 296.637 174.202 296.247C174.076 295.856 173.958 295.486 173.846 295.137C173.734 294.774 173.651 294.474 173.595 294.237L174.16 294.216C174.076 294.537 173.979 294.872 173.867 295.221C173.769 295.556 173.665 295.905 173.553 296.267C173.441 296.616 173.323 296.958 173.197 297.293C173.071 297.628 172.953 297.956 172.841 298.277L169.889 306.107H166.791ZM169.45 303.029L170.476 300.496H177.196L178.242 303.029H169.45ZM189.123 306.316C188.048 306.316 187.058 306.135 186.15 305.772C185.257 305.395 184.476 304.872 183.806 304.202C183.15 303.518 182.64 302.715 182.278 301.794C181.915 300.859 181.733 299.84 181.733 298.738C181.733 297.663 181.922 296.672 182.298 295.765C182.675 294.844 183.206 294.048 183.889 293.379C184.573 292.695 185.376 292.164 186.297 291.788C187.218 291.411 188.216 291.222 189.291 291.222C189.988 291.222 190.672 291.32 191.342 291.515C192.026 291.697 192.647 291.969 193.205 292.332C193.778 292.695 194.266 293.127 194.671 293.63L192.703 295.807C192.368 295.472 192.019 295.186 191.656 294.949C191.307 294.697 190.93 294.509 190.526 294.383C190.135 294.244 189.716 294.174 189.27 294.174C188.67 294.174 188.104 294.286 187.574 294.509C187.058 294.732 186.604 295.046 186.213 295.451C185.822 295.842 185.508 296.323 185.271 296.896C185.048 297.454 184.936 298.075 184.936 298.759C184.936 299.457 185.048 300.092 185.271 300.664C185.494 301.222 185.808 301.703 186.213 302.108C186.618 302.499 187.099 302.806 187.658 303.029C188.23 303.239 188.858 303.343 189.542 303.343C189.988 303.343 190.421 303.281 190.84 303.155C191.258 303.029 191.642 302.855 191.991 302.632C192.354 302.408 192.675 302.15 192.954 301.857L194.482 304.306C194.147 304.683 193.694 305.025 193.122 305.332C192.563 305.639 191.935 305.883 191.237 306.065C190.54 306.232 189.835 306.316 189.123 306.316Z" fill="#8729B2"/>
<circle cx="209.218" cy="298.107" r="2.61681" fill="#8729B2"/>
<path d="M227.918 306.107V294.279H223.647V291.453H235.454V294.279H231.058V306.107H227.918ZM243.904 306.316C242.829 306.316 241.838 306.128 240.931 305.751C240.024 305.374 239.228 304.851 238.545 304.181C237.875 303.497 237.358 302.694 236.995 301.773C236.633 300.838 236.451 299.826 236.451 298.738C236.451 297.635 236.633 296.63 236.995 295.723C237.358 294.802 237.875 294 238.545 293.316C239.228 292.632 240.024 292.102 240.931 291.725C241.838 291.348 242.829 291.159 243.904 291.159C244.992 291.159 245.983 291.348 246.876 291.725C247.784 292.102 248.572 292.632 249.242 293.316C249.926 294 250.449 294.802 250.812 295.723C251.175 296.644 251.356 297.649 251.356 298.738C251.356 299.826 251.175 300.831 250.812 301.752C250.449 302.673 249.926 303.476 249.242 304.16C248.572 304.844 247.784 305.374 246.876 305.751C245.983 306.128 244.992 306.316 243.904 306.316ZM243.904 303.343C244.518 303.343 245.083 303.232 245.599 303.008C246.13 302.785 246.583 302.464 246.96 302.045C247.337 301.627 247.63 301.138 247.839 300.58C248.063 300.022 248.174 299.408 248.174 298.738C248.174 298.068 248.063 297.454 247.839 296.896C247.63 296.337 247.337 295.856 246.96 295.451C246.583 295.032 246.13 294.711 245.599 294.488C245.083 294.251 244.518 294.132 243.904 294.132C243.29 294.132 242.724 294.251 242.208 294.488C241.692 294.711 241.238 295.032 240.847 295.451C240.457 295.856 240.157 296.337 239.947 296.896C239.752 297.454 239.654 298.068 239.654 298.738C239.654 299.408 239.752 300.022 239.947 300.58C240.157 301.138 240.457 301.627 240.847 302.045C241.238 302.464 241.692 302.785 242.208 303.008C242.724 303.232 243.29 303.343 243.904 303.343ZM254.198 306.107V291.453H264.1V294.216H257.255V303.343H264.247V306.107H254.198ZM255.664 299.973V297.293H263.096V299.973H255.664Z" fill="white"/>
</svg>
